<svg width="200" height="34" viewBox="0 0 200 34" fill="none" xmlns="http://www.w3.org/2000/svg">
    <path d="M29.9395 21.0284L28.2416 21.9641L5.37665 9.13867C4.98048 8.91849 4.81068 8.42308 5.09366 8.03776C5.32005 7.65245 5.82942 7.48731 6.2256 7.76254L29.9395 21.0284Z" fill="#0088E9"/>
    <path d="M32.3732 16.9551L17.3751 8.53319L8.1499 3.30391C4.52772 1.32229 0 3.85436 0 7.87265V28.7898C0 32.8081 4.47113 35.2851 8.0367 33.3035L26.0344 23.2853L4.24474 11.0653C2.77323 10.2396 2.26386 8.36806 3.11281 6.93688C3.96175 5.45067 5.88604 4.95526 7.35755 5.78093L32.1468 19.7073L32.3166 19.5973C33.4485 19.0468 33.4485 17.5055 32.3732 16.9551Z" fill="#0088E9"/>
    <path d="M63.3746 17.7245H55.6209V30.55H52.791V15.3576H63.3746V17.7245Z" fill="#585C6F"/>
    <path d="M76.8454 18.9357V30.4952H74.1854V29.009C73.7326 29.5044 73.1666 29.9447 72.544 30.2199C71.8648 30.4952 71.1858 30.6603 70.3933 30.6603C68.8087 30.6603 67.5635 30.2199 66.6014 29.3942C65.6958 28.5136 65.2431 27.2475 65.2431 25.5411V18.9357H68.0163V25.2108C68.0163 26.2567 68.2427 27.0273 68.7521 27.5228C69.2615 28.0182 69.9406 28.2934 70.8461 28.2934C71.8083 28.2934 72.6006 28.0182 73.2232 27.4126C73.7892 26.8072 74.1287 25.9264 74.1287 24.8255V18.9357H76.8454Z" fill="#585C6F"/>
    <path d="M92.3506 30.5502V22.8439L88.3322 29.2842H87.1437L83.1819 22.7889V30.4952H80.6351V18.9357H83.5781L87.8229 26.2016L92.2374 18.9357H94.8408V30.4952L92.3506 30.5502Z" fill="#585C6F"/>
    <path d="M98.692 18.9357H101.465V23.6695H107.465V18.9357H110.237V30.4952H107.465V25.9264H101.465V30.4952H98.692V18.9357Z" fill="#585C6F"/>
    <path d="M125.63 18.9356V30.4951H122.97V29.0089C122.518 29.5593 121.952 29.9446 121.272 30.2199C120.593 30.4951 119.857 30.6051 119.008 30.6051C117.877 30.6051 116.801 30.3849 115.896 29.8895C114.99 29.3941 114.254 28.6785 113.745 27.7979C113.236 26.9171 112.952 25.8713 112.952 24.6603C112.952 23.4493 113.236 22.4584 113.745 21.5228C114.254 20.642 114.99 19.9264 115.896 19.431C116.801 18.9356 117.82 18.7154 119.008 18.7154C119.801 18.7154 120.48 18.8255 121.159 19.1007C121.782 19.376 122.348 19.7613 122.857 20.2567V18.9356H125.63ZM121.895 27.3575C122.574 26.6969 122.913 25.8162 122.913 24.7153C122.913 23.6144 122.574 22.7337 121.895 22.0732C121.216 21.4126 120.367 21.0824 119.348 21.0824C118.329 21.0824 117.48 21.4126 116.801 22.0732C116.123 22.7337 115.783 23.6144 115.783 24.7153C115.783 25.8162 116.123 26.6969 116.801 27.3575C117.48 28.0181 118.329 28.3483 119.348 28.3483C120.367 28.3483 121.216 28.0181 121.895 27.3575Z" fill="#585C6F"/>
    <path d="M138.083 25.486C138.479 25.9263 138.705 26.4768 138.705 27.1373C138.705 27.8529 138.479 28.4584 137.969 29.0089C137.46 29.5593 136.781 29.9997 135.932 30.2749C135.083 30.6051 134.064 30.7153 132.989 30.7153C132.083 30.7153 131.178 30.6051 130.272 30.3849C129.367 30.1647 128.575 29.8895 127.895 29.5043L128.688 27.4676C129.254 27.7979 129.933 28.0181 130.669 28.1831C131.405 28.3483 132.14 28.4584 132.875 28.4584C133.838 28.4584 134.518 28.2933 135.083 28.0181C135.593 27.7428 135.875 27.3575 135.875 26.8621C135.875 26.4217 135.649 26.0915 135.253 25.8162C134.857 25.596 134.29 25.4309 133.498 25.4309H131.178V23.6144H133.272C133.951 23.6144 134.518 23.5044 134.913 23.2842C135.31 23.064 135.479 22.7337 135.479 22.2934C135.479 21.853 135.253 21.5228 134.744 21.3026C134.291 21.0824 133.611 20.9172 132.762 20.9172C131.574 20.9172 130.329 21.1924 128.97 21.7429L128.235 19.7613C129.819 19.0457 131.347 18.7154 132.989 18.7154C134.008 18.7154 134.913 18.8255 135.706 19.1007C136.498 19.376 137.121 19.7613 137.574 20.2016C138.026 20.697 138.252 21.2475 138.252 21.853C138.252 22.4034 138.083 22.8988 137.743 23.3392C137.403 23.7796 136.895 24.1098 136.272 24.385C137.064 24.7153 137.687 25.0456 138.083 25.486Z" fill="#585C6F"/>
    <path d="M152.912 18.9357V30.4952H150.252V29.009C149.799 29.5044 149.234 29.9447 148.611 30.2199C147.932 30.4952 147.252 30.6603 146.46 30.6603C144.875 30.6603 143.63 30.2199 142.668 29.3942C141.763 28.5136 141.309 27.2475 141.309 25.5411V18.9357H144.083V25.2108C144.083 26.2567 144.309 27.0273 144.819 27.5228C145.328 28.0182 146.007 28.2934 146.913 28.2934C147.875 28.2934 148.667 28.0182 149.29 27.4126C149.856 26.8072 150.195 25.9264 150.195 24.8255V18.9357H152.912Z" fill="#585C6F"/>
    <path d="M166.777 18.9357V30.4952H164.287V27.0273H161.117L158.683 30.4952H155.684L158.513 26.642C157.664 26.3668 156.985 25.9264 156.533 25.3209C156.08 24.7154 155.854 23.9998 155.854 23.1191C155.854 21.7981 156.362 20.7521 157.325 20.0366C158.287 19.321 159.646 18.9357 161.343 18.9357H166.777ZM158.74 23.2292C158.74 24.5503 159.589 25.1558 161.343 25.1558H164.287V21.2475H161.4C159.589 21.2475 158.74 21.9081 158.74 23.2292Z" fill="#585C6F"/>
    <path d="M200 18.0559V30.7162H197.566V19.9824H194.793V18.0008L200 18.0559Z" fill="#585C6F"/>
    <path d="M186.131 18.0546V30.715H184.15L177.019 22.128V30.715H174.642V18.0546H176.623L183.811 26.6417V18.0546H186.131Z" fill="#585C6F"/>
    <path d="M190.547 19.761C191.453 19.761 192.188 20.4766 192.188 21.3573C192.188 22.238 191.453 22.9536 190.547 22.9536C189.641 22.9536 188.905 22.238 188.905 21.3573C188.849 20.4766 189.641 19.761 190.547 19.761ZM190.547 18.0546C188.622 18.0546 187.094 19.5408 187.094 21.4124C187.094 23.2839 188.622 24.7701 190.547 24.7701C192.471 24.7701 193.999 23.2839 193.999 21.4124C193.999 19.5408 192.415 18.0546 190.547 18.0546Z" fill="#585C6F"/>
    <path d="M193.604 25.9818H187.549V27.7433H193.604V25.9818Z" fill="#585C6F"/>
    <path d="M144.646 10.3484C144.023 10.0182 143.515 9.57783 143.175 8.97229C142.835 8.36683 142.666 7.70629 142.666 6.93565C142.666 6.16502 142.835 5.50449 143.175 4.89899C143.515 4.29349 144.023 3.85313 144.646 3.52286C145.269 3.1926 146.005 3.02746 146.797 3.02746C147.589 3.02746 148.325 3.1926 148.948 3.52286C149.571 3.85313 150.079 4.29349 150.42 4.89899C150.759 5.50449 150.928 6.16502 150.928 6.93565C150.928 7.70629 150.759 8.36683 150.42 8.97229C150.079 9.57783 149.571 10.0182 148.948 10.3484C148.325 10.6787 147.589 10.8438 146.797 10.8438C146.005 10.8989 145.269 10.6787 144.646 10.3484ZM148.438 8.6971C148.891 8.25673 149.117 7.70628 149.117 6.9907C149.117 6.27511 148.891 5.72466 148.438 5.28431C147.986 4.84394 147.42 4.62376 146.741 4.62376C146.061 4.62376 145.495 4.84394 145.099 5.28431C144.646 5.72466 144.42 6.27511 144.42 6.9907C144.42 7.70628 144.646 8.25673 145.099 8.6971C145.552 9.13745 146.118 9.35764 146.741 9.35764C147.476 9.35764 147.986 9.13745 148.438 8.6971Z" fill="#585C6F"/>
    <path d="M152.797 3.1376H154.608V6.22012H158.57V3.1376H160.381V10.7889H158.57V7.76138H154.608V10.7889H152.797V3.1376Z" fill="#585C6F"/>
    <path d="M170.003 3.1376V10.7889H168.193V4.67886H165.25L165.193 6.22011C165.136 7.21092 165.023 8.09165 164.91 8.75218C164.796 9.41271 164.514 9.96314 164.175 10.3485C163.834 10.7338 163.382 10.954 162.76 10.954C162.476 10.954 162.137 10.8989 161.74 10.7889L161.854 9.30266C161.967 9.35769 162.08 9.35769 162.193 9.35769C162.589 9.35769 162.873 9.19252 163.042 8.91732C163.212 8.6421 163.325 8.25678 163.382 7.87147C163.439 7.48615 163.495 6.88065 163.495 6.11002L163.608 3.19264L170.003 3.1376Z" fill="#585C6F"/>
    <path d="M180.077 3.13885V10.7901H178.322V9.79933C178.04 10.1846 177.643 10.4599 177.191 10.625C176.738 10.7901 176.228 10.9002 175.719 10.9002C174.983 10.9002 174.248 10.7351 173.681 10.4048C173.059 10.0745 172.606 9.63416 172.266 9.02871C171.927 8.42318 171.758 7.76264 171.758 6.99201C171.758 6.22138 171.927 5.50579 172.266 4.95534C172.606 4.34985 173.059 3.90949 173.681 3.57922C174.304 3.24894 174.983 3.08381 175.719 3.08381C176.228 3.08381 176.681 3.1939 177.134 3.35904C177.587 3.52417 177.927 3.7994 178.266 4.12967V3.1939L180.077 3.13885ZM177.587 8.69841C178.04 8.25805 178.266 7.7076 178.266 6.99201C178.266 6.27642 178.04 5.72597 177.587 5.28561C177.134 4.84526 176.568 4.62507 175.889 4.62507C175.21 4.62507 174.643 4.84526 174.248 5.28561C173.794 5.72597 173.568 6.27642 173.568 6.99201C173.568 7.7076 173.794 8.25805 174.248 8.69841C174.7 9.13876 175.266 9.35895 175.889 9.35895C176.625 9.35895 177.191 9.13876 177.587 8.69841Z" fill="#585C6F"/>
    <path d="M189.982 3.1376V10.7889H188.227V9.79806C187.944 10.1283 187.548 10.4035 187.152 10.5687C186.699 10.7338 186.247 10.8439 185.737 10.8439C184.662 10.8439 183.87 10.5687 183.247 10.0183C182.624 9.46774 182.341 8.58705 182.341 7.48615V3.1376H184.152V7.26597C184.152 7.92651 184.322 8.47696 184.605 8.80723C184.944 9.1375 185.398 9.30266 185.963 9.30266C186.586 9.30266 187.152 9.08248 187.491 8.69714C187.888 8.31183 188.057 7.70633 188.057 6.99075V3.1376H189.982Z" fill="#585C6F"/>
    <path d="M192.416 3.1376H194.226V6.22012H198.189V3.1376H200V10.7889H198.189V7.76138H194.226V10.7889H192.416V3.1376Z" fill="#585C6F"/>
    <path d="M186.132 2.20181C186.757 2.20181 187.264 1.70891 187.264 1.1009C187.264 0.49289 186.757 0 186.132 0C185.507 0 185 0.49289 185 1.1009C185 1.70891 185.507 2.20181 186.132 2.20181Z" fill="#585C6F"/>
</svg>
